<svg id="Layer_1" data-name="Layer 1" xmlns="http://www.w3.org/2000/svg" viewBox="0 0 500 500">
  <title>AEGIS_LOGO</title>
  <g>
    <g>
      <path d="M33.2,227.3l1.1-.4,8-2.6,6.5-2.2,11.3-3.9,1.9-.6h.7l8.3,2.8,6.8,2.3,5.1,1.7,6.4,2.2,2.1.7a3.1,3.1,0,0,1-.1,1l-.6,4.6c-.3,1.7-.5,3.4-.8,5s-.5,3.5-.7,5.2l-.9,6c-.2,1.9-.5,3.7-.8,5.6s-.5,4-.8,5.9a6.9,6.9,0,0,0-.2,1.3,1,1,0,0,1-.4.7l-1,1.2C84,264.9,83,266,81.9,267l-3.3,3.2c-1.5,1.4-3.1,2.7-4.7,4a39.2,39.2,0,0,1-3.2,2.5l-4,3-3.9,2.5-.6.3-1.2-.8-3.3-2.2c-1.7-1.2-3.4-2.4-5-3.7s-3.3-2.5-4.8-3.9l-3-2.7-3.1-3.1-3.2-3.4a1.7,1.7,0,0,1-.5-1.2c-.1-.9-.3-1.8-.4-2.7s-.4-2.4-.5-3.6a23.4,23.4,0,0,1-.4-2.6c-.2-1.5-.4-2.9-.7-4.4s-.4-3.5-.7-5.2-.5-3.6-.8-5.5l-.9-6.4a29.1,29.1,0,0,1-.4-3.1A1.5,1.5,0,0,1,33.2,227.3Zm29.1,48.6h.3l2.2-1.6,4.1-3.1a59.8,59.8,0,0,0,4.8-4c1.8-1.6,3.5-3.2,5.1-4.9l2-2.1.3-.5.6-3.8c.2-1.9.5-3.8.8-5.6s.5-3.6.7-5.4.6-3.4.8-5.2.3-2.4.5-3.7.5-3,.7-4.5v-.3l-.5-.2-3.2-1.1-4.9-1.7-8.7-2.9-5.1-1.8h-.9l-1.1.4-5.1,1.8-3.8,1.3-3.8,1.2L41,230.5l-1.5.5a3.3,3.3,0,0,0,0,1l.6,4.3.9,5.8c.3,2,.6,4,.8,6l.9,5.8c.3,1.8.5,3.6.8,5.5a3,3,0,0,0,.4.8c1.9,2,3.8,4,5.9,5.9l4.4,3.8c1.4,1.2,2.9,2.2,4.3,3.3l3.2,2.3Z" style="fill: #6366f1"/>
      <path d="M61.4,265.5a16.9,16.9,0,0,1-15.6-15.6H42.5a9.7,9.7,0,0,1,0-1.7h3.3c0-.1.1-.2.1-.4a19.1,19.1,0,0,1,.6-3.3,16.9,16.9,0,0,1,1.3-3.1l.9-1.4a15.5,15.5,0,0,1,4.6-4.6,16,16,0,0,1,5.9-2.4l1.8-.3h.4V228h1.7a.7.7,0,0,1,.1.5v3.9h.7a24.6,24.6,0,0,1,3.9.9,16.8,16.8,0,0,1,5,2.9l.5.4,5-4.9a6.3,6.3,0,0,1,1.2,1.1h-.2l-4.7,4.7h0c.5.7,1.1,1.4,1.6,2.2a19.6,19.6,0,0,1,1.3,2.5,11.2,11.2,0,0,1,.8,2.6l.6,2.8h3.2a4.9,4.9,0,0,1,0,1.7H78.8a16.4,16.4,0,0,1-4.9,10.8,16.9,16.9,0,0,1-10.7,4.9,7.5,7.5,0,0,0,0,1.5,8.5,8.5,0,0,0,0,1.6,7.6,7.6,0,0,0-.1,1.5H61.5c0-.1-.1-.3-.1-.4v-4.2ZM77,249.9H71.6c-.9,4.8-3.6,7.6-8.4,8.4h-.1c.1,1.7.1,3.3.1,5v.3A14.9,14.9,0,0,0,77,249.9ZM61.4,239.7v-5.5a17.5,17.5,0,0,0-6.7,2.1,15.7,15.7,0,0,0-5.6,6.1,12.7,12.7,0,0,0-1.4,5.6h5.4a8.8,8.8,0,0,1,1.4-4,8.9,8.9,0,0,1,2.9-2.9A9.6,9.6,0,0,1,61.4,239.7Zm0,18.5a9.6,9.6,0,0,1-4-1.4,9.2,9.2,0,0,1-3-2.9,9.9,9.9,0,0,1-1.3-4H47.6a15.6,15.6,0,0,0,2.5,7.3,15.2,15.2,0,0,0,6.5,5.3c1.3.6,4,1.3,4.8,1.1Zm1.8-23.9v5.4a7.7,7.7,0,0,1,2.6.7,11.2,11.2,0,0,1,2.4,1.3c.5-.4,3.5-3.4,3.8-3.8A14.2,14.2,0,0,0,63.2,234.3ZM77,248.1v-.7a16.2,16.2,0,0,0-1.2-4.3,15.9,15.9,0,0,0-2.2-3.5l-.3-.4-.2.2-3.4,3.4-.2.3.4.5a3.5,3.5,0,0,0,.5.8,11.7,11.7,0,0,1,1.1,3.3c0,.1.1.2.1.4Zm-7.3,1.8H63.2v.5c0,1.3,0,2.5-.1,3.8a10.9,10.9,0,0,0,.1,1.8v.4C66.8,256.2,69.7,252.7,69.7,249.9Zm-8.3-.1H54.9a7.3,7.3,0,0,0,6.5,6.5v-6.6Zm0-1.8h0v-6.3h-.6a7.4,7.4,0,0,0-4.3,2.6,8.2,8.2,0,0,0-1.6,3.4c0,.1-.1.3,0,.4h6.5Zm1.8-1.2,1.9-1.9,1.8-1.8a5.7,5.7,0,0,0-3.7-1.5A45,45,0,0,0,63.2,246.8Zm1.4,1.3h4.6c.2,0,.4.1.5-.1a6.3,6.3,0,0,0-1.5-3.6A41.7,41.7,0,0,0,64.6,248.1Z" style="fill: #22d3ee"/>
    </g>
    <text transform="translate(106.3 266.4)" style="font-size: 56.26958084106445px;fill: #6366f1;font-family: Montserrat-ExtraBold, Montserrat;font-weight: 800;letter-spacing: -0.03899684171627268em">A<tspan x="42" y="0" style="letter-spacing: -0.03998608069171884em">E</tspan><tspan x="77.6" y="0">GIS </tspan><tspan x="184" y="0" style="fill: #22d3ee;font-family: Montserrat-Medium, Montserrat;font-weight: 500">R</tspan><tspan x="222.7" y="0" style="fill: #22d3ee;font-family: Montserrat-Medium, Montserrat;font-weight: 500;letter-spacing: -0.04198191371235585em">E</tspan><tspan x="258" y="0" style="fill: #22d3ee;font-family: Montserrat-Medium, Montserrat;font-weight: 500;letter-spacing: -0.05400897704541191em">C</tspan><tspan x="295.7" y="0" style="fill: #22d3ee;font-family: Montserrat-Medium, Montserrat;font-weight: 500;letter-spacing: -0.03901419678601734em">ON</tspan></text>
  </g>
</svg>
