<svg id="Layer_1" data-name="Layer 1" xmlns="http://www.w3.org/2000/svg" viewBox="0 0 500 500">
  <title>AEGIS_LOGOMARK</title>
  <g>
    <path d="M58.2,100.2l6.9-2.4,52.6-17.6,43-14.4,74.7-25.3c4.1-1.4,8.2-2.7,12.3-4.2a6.1,6.1,0,0,1,4.6.1l55,18.6,45.1,15.1,33.1,11.3,42.3,14.1,14.3,4.8c-.3,2.3-.5,4.3-.8,6.4-1.4,10.2-2.9,20.4-4.3,30.6l-4.8,33.1c-1.6,11.4-3.2,22.8-4.9,34.2-1.8,13.2-3.7,26.3-5.6,39.4l-5.4,36.8c-1.9,13.1-3.7,26.3-5.5,39.4-.4,2.7-1,5.4-1.3,8.1a8.9,8.9,0,0,1-2.5,4.9c-2.3,2.6-4.6,5.2-7,7.7-6.8,7.2-13.6,14.5-20.6,21.5s-14.7,14-22.1,21.1c-9.8,9.3-20.2,17.9-30.7,26.5-6.9,5.6-13.9,11.1-21.1,16.4-8.9,6.6-17.8,13-26.9,19.4S261.7,457,253,462.2a39.4,39.4,0,0,1-3.6,1.9l-8.1-5c-7.3-4.8-14.5-9.5-21.7-14.4-11.2-7.8-22.3-15.8-33-24.2s-21.6-17.1-31.9-26.2c-6.5-5.8-13.1-11.5-19.3-17.5s-13.9-13.5-20.6-20.4-14.1-15-21.3-22.5A12.8,12.8,0,0,1,90,326c-.7-5.9-1.8-11.8-2.6-17.7-1.1-8.1-2.2-16.2-3.4-24.3-.8-5.6-1.7-11.2-2.6-16.9-1.4-9.5-2.7-19.1-4.1-28.7-1.6-11.5-3.2-23.1-4.9-34.6s-3.5-24-5.2-36.1l-6-42.3c-1-6.8-2-13.5-2.9-20.2A10.5,10.5,0,0,1,58.2,100.2Zm192,320.6,1.4-.8c4.8-3.4,9.8-6.7,14.6-10.2,9-6.7,18.1-13.5,27-20.4,11-8.4,21.7-17.3,32-26.7s22.7-21.1,33.5-32.2l13.2-13.7a7,7,0,0,0,1.9-3.5c1.2-8.5,2.5-16.9,3.8-25.4,1.8-12.2,3.5-24.5,5.3-36.8l5.1-35.3c1.7-11.4,3.4-22.8,5-34.2,1.2-8.1,2.3-16.2,3.4-24.3,1.5-10,2.9-19.9,4.3-29.8a9.5,9.5,0,0,0,.1-2.4l-3.1-1.2-21.5-7.4-32-10.7L287.1,86.5c-11.4-3.8-22.8-7.7-34.1-11.7a7.5,7.5,0,0,0-5.7,0c-2.4,1-4.9,1.8-7.4,2.7L206.5,88.8l-25.4,8.5-24.7,8.3-46.8,15.8L99.2,125c-.6,2.4.2,4.4.5,6.5,1.3,9.4,2.6,18.9,4,28.3,1.9,12.8,3.8,25.6,5.6,38.3s3.7,26.3,5.6,39.4,3.7,25.3,5.6,37.9,3.7,24.3,5.4,36.4a9.1,9.1,0,0,0,2.5,5.2c12.7,13.3,25.4,26.5,39,38.9,9.5,8.7,19.2,17.3,29.1,25.5s18.9,14.6,28.4,21.7c7,5.1,14.1,10,21.2,15C247.4,419.1,248.8,419.9,250.2,420.8Z" style="fill: #6366f1"/>
    <path d="M243.9,352c-27.5-2.4-51.1-12.8-70.6-32.2s-29.5-43.4-32.1-70.8c-3.8-.3-7.4-.1-10.9-.1h-11a51.5,51.5,0,0,1-.2-11.1l2.9-.3h14.9l4.2-.2c.2-1,.4-1.8.5-2.6a134.4,134.4,0,0,1,4.2-21.9,93.3,93.3,0,0,1,8.7-20.9c1.8-3,3.4-6.1,5.3-8.9a110.4,110.4,0,0,1,30.8-30.5,102.3,102.3,0,0,1,39-15.8l11.4-1.7,3.1-.5V104.9c2.6-.9,6.2-.9,10.9-.3.8,1.1.5,2.3.5,3.5.1,7.9.1,15.7.1,23.5v2.2c1.7,1,3.5.8,5.1,1a103.5,103.5,0,0,1,25.3,5.9,101.7,101.7,0,0,1,33.3,19.2l3.2,2.3,33.1-32.5c3,2.3,5.2,5.1,7.5,7.7,0,.3.1.4,0,.5s0,.3-.1.3l-1,1.2-30.7,30.7c-.1.1-.1.3-.3.5,3.5,4.8,7.2,9.6,10.6,14.6a103.4,103.4,0,0,1,8.6,16.5,88,88,0,0,1,5.5,17.4c1.3,5.9,2.2,11.9,3.4,18.1a14.3,14.3,0,0,0,2.3.3h19.2a29.6,29.6,0,0,1,0,11.1,44.2,44.2,0,0,1-7.3.2H358.6c-2.1,27.8-12.5,51.6-32.2,71.1s-43.1,30-70.7,32.1c-.4,3.4-.1,6.8-.2,10.1v10.4c0,3.3-.1,6.7-.1,9.9-2.6.9-7,1-11,.3,0-.9-.2-1.8-.2-2.8V355.7C244.2,354.5,244,353.3,243.9,352ZM346.8,249.1l-1.7-.3h-32l-1.8.3c-5.8,31.5-24.1,50.1-55.6,55.3a6,6,0,0,0-.2,1.2c0,10.9,0,21.8.1,32.7a10.1,10.1,0,0,0,.3,1.7C300.9,338.2,344.2,299.4,346.8,249.1ZM243.8,182a14.3,14.3,0,0,0,.3-1.6V148a8.1,8.1,0,0,0-.4-1.9A100.1,100.1,0,0,0,200,159.8c-16.3,9.9-28.4,23.6-37.1,40.3-6.5,12.8-10.1,28.9-9.4,37l3.1.3h29.8a14.7,14.7,0,0,0,2.7-.4,61.6,61.6,0,0,1,9-26.3c5-8,11.8-14.2,19.6-19.5S234.5,183.4,243.8,182Zm.2,122.3c-9.6-1.4-18.4-4-26.4-9.1a63.7,63.7,0,0,1-19.9-19.8c-5-8.1-7.5-16.9-8.7-26.2l-1.6-.3H154.7a4.8,4.8,0,0,0-1.7.5,95,95,0,0,0,16.6,48.1,99.3,99.3,0,0,0,42.8,35.2c8.4,3.7,26.2,8.4,31.6,7.3Zm11.9-157.8a11.3,11.3,0,0,0-.3,1.8v33.6c6.1,1.1,11.9,2.3,17.4,4.6a70.5,70.5,0,0,1,15.5,9c3.4-2.6,23.3-22.4,25.2-25.1C301.3,157.7,274.1,145.8,255.9,146.5Zm91,90.7c-.1-1.8-.1-3.1-.3-4.4-1.1-9.8-4-19.1-7.7-28.2s-8.8-16.1-14.4-23.4a16.7,16.7,0,0,0-2.3-2.3l-1.3,1.1-22.5,22.8a9.7,9.7,0,0,0-1,1.5c.9,1.2,1.6,2.4,2.4,3.5s2.2,3.2,3.2,5a61.1,61.1,0,0,1,7.5,22,22.5,22.5,0,0,0,.8,2.4Zm-48,12.1c-3.1-.6-39.8-.6-43.2,0,0,1.2-.1,2.4-.1,3.6,0,8.2-.1,16.4-.1,24.6v12.2a10.3,10.3,0,0,0,.5,2.4C279.6,290.8,298.4,268,298.9,249.3Zm-54.8-.3c-13.9-.4-27.4,0-40.9-.1l-2.1.2c.4,20.6,21.3,42,42.6,42.9.1-.3.4-.6.4-1Zm-.3-11.9a2.3,2.3,0,0,0,.3-.9V196.8a16.2,16.2,0,0,0-.1-2.2v-.3a1.9,1.9,0,0,1-.4-.6l-3.5.6c-11.3,2.8-21.1,8.3-28.6,17.6a52.7,52.7,0,0,0-10.3,21.9c-.2,1.1-.6,2.2.2,3.2,2.9.4,34,.7,40.8.4Zm12-8.4,12.6-12.4c3.9-4,8.1-7.8,11.9-12-6.2-5.9-18.1-10.7-24.3-9.9C255.3,197.6,255.2,222.9,255.8,228.7Zm9.1,8.5H271l24.1.3c1.3,0,2.7.3,3.8-.6-.8-9.2-5.9-20.8-10.3-24.1C286,214.9,266.6,234.7,264.9,237.2Z" style="fill: #22d3ee"/>
  </g>
</svg>
